<svg xmlns="http://www.w3.org/2000/svg" xmlns:xlink="http://www.w3.org/1999/xlink" height="800px" width="800px" version="1.1" id="_x32_" viewBox="0 0 512 512" xml:space="preserve">
<style type="text/css">
	.st0{fill:#243F70;}
</style>
<g>
	<path class="st0" d="M275.076,93.952c2.991-24.117-14.126-46.108-38.252-49.108c-24.126-3-46.107,14.117-49.107,38.252   c-3,24.126,14.126,46.108,38.256,49.107C250.085,135.195,272.076,118.078,275.076,93.952z"/>
	<path class="st0" d="M384.588,229.743c-20.572-32.927-36.882-70.296-41.076-77.557c-2.487-4.316-2.73-7.361-0.78-11.622   c8.4-12.144,16.991-24.197,25.685-36.125c7.54-10.352,18.319-21.802,14.202-35.9c-2.364-8.108-9.541-11.486-15.604-16.424   c-15.23-12.441-30.414-24.982-45.742-37.333c-4.292-3.45-8.436-7.08-12.783-10.45c-7.068-6.288-17.897-5.658-24.18,1.424   c-5.297,5.964-5.617,14.576-1.361,20.9L266.932,43.34c3.928,3.1,7.446,6.658,10.436,10.648l15.987-16.648l40.324,39.126   l-31.878,33.954c-17.613,17.252-59.472,42.072-49.891,77.035c7.302,26.648,32.418,72.404,32.418,85.323   c0,17.892-9.81,108.287-9.81,108.287c-0.064,0.352-0.081,0.703-0.126,1.063l-28.396,98.143c-3.225,10.612,2.775,21.838,13.4,25.054   c10.617,3.225,21.842-2.766,25.063-13.396l34.162-90.873c0.473-1.054,0.892-2.153,1.225-3.297l0.37-0.982   c0.518-1.721,18.468-86.8,18.468-86.8l0.798-7.91l-8.586,85.324c-0.248,1.504-0.41,3.027-0.41,4.613l4.207,97.665   c0,12.333,9.991,22.333,22.324,22.333c12.33,0,22.333-10,22.333-22.333l5.77-94.134l13.792-86.927   C401.889,281.768,405.155,262.67,384.588,229.743z"/>
	<path class="st0" d="M187.676,125.879l-73.224,76.242c-3.734,3.901-4.631,9.712-2.239,14.55l18.554,37.531   c1.464,2.991,4.162,5.171,7.379,6.036c3.216,0.847,6.64,0.279,9.396-1.586l13.936-9.397c2.753-1.864,4.568-4.819,4.987-8.117   c0.419-3.297-0.608-6.612-2.815-9.099l-24.972-33.594l60.035-62.53C194.64,133.104,190.951,129.717,187.676,125.879z"/>
</g>
</svg>