<svg xmlns="http://www.w3.org/2000/svg" xmlns:xlink="http://www.w3.org/1999/xlink" fill="#243F70" height="800px" width="800px" version="1.1" id="Layer_1" viewBox="0 0 512 512" xml:space="preserve">
<g>
	<g>
		<path d="M119.467,349.867c-28.237,0-51.2,22.963-51.2,51.2c0,28.237,22.963,51.2,51.2,51.2s51.2-22.963,51.2-51.2    C170.667,372.83,147.703,349.867,119.467,349.867z M119.467,435.2c-18.825,0-34.133-15.309-34.133-34.133    c0-18.825,15.309-34.133,34.133-34.133s34.133,15.309,34.133,34.133C153.6,419.891,138.291,435.2,119.467,435.2z"/>
	</g>
</g>
<g>
	<g>
		<path d="M392.533,349.867c-28.237,0-51.2,22.963-51.2,51.2c0,28.237,22.963,51.2,51.2,51.2c28.237,0,51.2-22.963,51.2-51.2    C443.733,372.83,420.77,349.867,392.533,349.867z M392.533,435.2c-18.825,0-34.133-15.309-34.133-34.133    c0-18.825,15.309-34.133,34.133-34.133c18.825,0,34.133,15.309,34.133,34.133C426.667,419.891,411.358,435.2,392.533,435.2z"/>
	</g>
</g>
<g>
	<g>
		<path d="M511.343,346.581l-42.667-102.4c-1.323-3.174-4.429-5.248-7.876-5.248h-34.133v-102.4h17.067    c4.71,0,8.533-3.823,8.533-8.533V68.267c0-4.71-3.823-8.533-8.533-8.533H196.267c-28.237,0-51.2,22.963-51.2,51.2    c0,4.71,3.823,8.533,8.533,8.533h11.17L80.205,273.22C35.533,275.883,0,313.071,0,358.4v34.133c0,1.553,0.418,3.012,1.143,4.267    C0.418,398.054,0,399.514,0,401.067c0,4.71,3.823,8.533,8.533,8.533h34.133c4.71,0,8.533-3.823,8.533-8.533    c0-37.641,30.626-68.267,68.267-68.267c37.641,0,68.267,30.626,68.267,68.267c0,4.71,3.823,8.533,8.533,8.533h119.467    c4.71,0,8.533-3.823,8.533-8.533c0-37.641,30.626-68.267,68.267-68.267c37.641,0,68.267,30.626,68.267,68.267    c0,4.71,3.823,8.533,8.533,8.533h34.133c4.71,0,8.533-3.823,8.533-8.533v-51.2C512,348.74,511.778,347.622,511.343,346.581z     M384,247.467c0,2.944-1.519,5.675-4.011,7.236l-65.809,41.131l-24.585,65.562c-1.254,3.328-4.437,5.538-7.996,5.538h-51.2    c-3.098,0-5.956-1.681-7.458-4.386l-34.125-61.431l24.516-24.516l11.034,11.034c1.664,1.664,3.849,2.5,6.033,2.5    c2.185,0,4.369-0.836,6.033-2.5c3.337-3.337,3.337-8.73,0-12.066L202.3,241.434c-3.337-3.337-8.73-3.337-12.066,0    c-3.337,3.337-3.337,8.73,0,12.066l11.034,11.034l-25.6,25.6h-39.134c-3.021,0-5.811-1.596-7.347-4.19    c-1.536-2.594-1.587-5.811-0.128-8.457l93.867-170.667c1.493-2.722,4.361-4.42,7.475-4.42h102.4c2.176,0,4.267,0.828,5.854,2.321    c11.119,10.47,16.034,14.123,37.069,14.746c4.608,0.145,8.277,3.917,8.277,8.533V247.467z"/>
	</g>
</g>
</svg>